<svg id="Calque_1" data-name="Calque 1" xmlns="http://www.w3.org/2000/svg" viewBox="0 0 721.43 850.39"><defs><style>.cls-1{fill:#c03749;}.cls-2{fill:#202549;}</style></defs><path class="cls-1" d="M244.64,266.08c11.14-8,25.17-18.27,28.87-32.23,3-11.45-1.88-22.33-14.83-19.85-15.39,2.94-29.62,16.06-40.43,26.68-19.3,18.95-33.92,42.21-45.38,66.74,13.53-6.69,26.9-13.72,40-21.22C223.72,280,234.44,273.38,244.64,266.08Z"/><path class="cls-1" d="M495.63,522.18C461,532.29,425,524.73,403,495c-12.78-17.25-18.83-39.11-20.59-60.79a1071.76,1071.76,0,0,1-116.84,69.15c-41.49,21-95.84,38-135.27,3.5-30-26.25-30.9-69.65-24.9-106,1.5-9,3.45-18.09,5.72-27.11Q78,387.12,44.16,398.52C66.6,556,202,677.13,365.66,677.13c162.21,0,296.63-118.92,320.89-274.33-24.9,18.32-50.5,35.81-75.84,53.28C575,480.68,537.83,509.89,495.63,522.18Z"/><path class="cls-1" d="M143.62,286.21c18-37,43.63-71.35,78.36-94.23,18.44-12.15,43.85-20.26,64.45-8.24,19.11,11.16,26,34,22.46,54.89C302.81,274.3,265,296.94,236.2,313.9c-26.51,15.63-54.28,29.11-82.39,41.61-8,23.18-14.56,47.35-15.74,71.32-1.38,27.89,6.64,59.08,38.75,63.84,35.7,5.29,73.22-18.89,102.87-35.34A1157.78,1157.78,0,0,0,383.92,389.8c7.6-60.58,35.35-122.69,80.29-163.42,24.2-21.93,59-39.13,92-27.52,31.12,11,55.43,41.63,46.51,75.63-5.84,22.23-40.24,12.75-34.41-9.48,2.65-10.13-3-19.63-11.23-25.92-10.64-8.17-23.19-9.81-35.89-6.24-29.09,8.17-50.43,36.13-65.7,60.59a254,254,0,0,0-32.89,81.33c-5.28,24.54-7.83,51-1.37,75.57,5.32,20.23,18,39.51,40.86,40.73,22.34,1.2,44.36-9.89,63.05-21.14,32.45-19.53,63.49-41.61,94.46-63.37q25-17.61,49.79-35.63,9.75-7.12,19.41-14.38l1.61-1.22c0-1,.08-2,.08-3,0-179.39-145.43-324.82-324.82-324.82S40.84,172.92,40.84,352.31c0,3.24.14,6.44.24,9.66Q83.65,347.39,125,329.46C130.58,314.61,136.87,300.11,143.62,286.21Z"/><path class="cls-2" d="M65.35,801.58a2,2,0,0,1-.58-1.43v-54.5a2.13,2.13,0,0,1,.54-1.51,1.88,1.88,0,0,1,1.45-.59h36.56a2,2,0,0,1,2.07,2.1v5.61a1.89,1.89,0,0,1-.58,1.46,2.08,2.08,0,0,1-1.49.55H76.13v14.65h25.36a2,2,0,0,1,1.5.59,2.07,2.07,0,0,1,.58,1.5v5.28a1.93,1.93,0,0,1-.58,1.46,2.09,2.09,0,0,1-1.5.55H76.13v15.15H104a2.1,2.1,0,0,1,1.49.54,1.93,1.93,0,0,1,.58,1.47v5.69a1.9,1.9,0,0,1-.58,1.47,2.1,2.1,0,0,1-1.49.54H66.76A1.92,1.92,0,0,1,65.35,801.58Z"/><path class="cls-2" d="M120.14,801.58a2,2,0,0,1-.58-1.43V760.64a1.9,1.9,0,0,1,.58-1.47,2,2,0,0,1,1.41-.54h6.88a2,2,0,0,1,1.45.54,2,2,0,0,1,.54,1.47v3.43q5.06-6.29,13.84-6.28,7.63,0,12.1,5t4.48,13.82v23.52a2,2,0,0,1-.54,1.43,1.87,1.87,0,0,1-1.45.58h-7.46a1.92,1.92,0,0,1-1.41-.58,2,2,0,0,1-.58-1.43v-23c0-3.24-.79-5.76-2.36-7.58a8.49,8.49,0,0,0-6.76-2.72,8.84,8.84,0,0,0-6.79,2.76,10.63,10.63,0,0,0-2.57,7.54v23a2,2,0,0,1-.54,1.43,1.87,1.87,0,0,1-1.45.58h-7.38A1.92,1.92,0,0,1,120.14,801.58Z"/><path class="cls-2" d="M204.23,797.1q-6.25-5.91-6.67-16.79c-.06-1.51-.08-4-.08-7.37s0-6,.08-7.53q.41-10.73,6.71-16.71t17.66-6a30.16,30.16,0,0,1,12.85,2.55,20.49,20.49,0,0,1,8.49,7,18.27,18.27,0,0,1,3.19,10v.16a1.42,1.42,0,0,1-.54,1.13,1.79,1.79,0,0,1-1.2.46h-8a2.11,2.11,0,0,1-1.49-.46,3.51,3.51,0,0,1-.83-1.63c-.83-3.46-2.26-5.9-4.31-7.33a14,14,0,0,0-8.12-2.13q-11.85,0-12.35,13.4c-.06,1.5-.09,3.82-.09,6.94s0,5.5.09,7.12q.49,13.4,12.35,13.4a14,14,0,0,0,8.08-2.14q3.11-2.13,4.35-7.32a3.61,3.61,0,0,1,.83-1.64,2.16,2.16,0,0,1,1.49-.46h8a1.81,1.81,0,0,1,1.29.51,1.38,1.38,0,0,1,.45,1.25,18.27,18.27,0,0,1-3.19,10,20.64,20.64,0,0,1-8.49,7A30.16,30.16,0,0,1,221.93,803Q210.49,803,204.23,797.1Z"/><path class="cls-2" d="M263.54,798q-5.31-5-5.72-13.9l-.08-3.69.08-3.68q.4-8.79,5.8-13.86t15-5.06q9.54,0,14.92,5.06t5.81,13.86c0,.67.08,1.9.08,3.68s0,3-.08,3.69q-.42,8.88-5.72,13.9t-15,5Q268.84,803,263.54,798Zm21.84-6.2c1.57-1.84,2.42-4.55,2.53-8.12,0-.56.08-1.65.08-3.27s0-2.7-.08-3.26q-.17-5.36-2.57-8.16a9.52,9.52,0,0,0-13.51,0c-1.61,1.87-2.46,4.59-2.57,8.16l-.09,3.26.09,3.27c.11,3.57,1,6.28,2.57,8.12a8.51,8.51,0,0,0,6.79,2.76A8.42,8.42,0,0,0,285.38,791.78Z"/><path class="cls-2" d="M313.35,801.58a2,2,0,0,1-.58-1.43V760.64a1.93,1.93,0,0,1,.58-1.47,2,2,0,0,1,1.41-.54h6.55a2,2,0,0,1,1.45.54,2,2,0,0,1,.54,1.47v2.84a14.51,14.51,0,0,1,12-5.69q9.19,0,12.85,7.45a14.86,14.86,0,0,1,5.63-5.4,15.79,15.79,0,0,1,7.88-2.05,14.37,14.37,0,0,1,11.1,4.69q4.32,4.68,4.31,13.64v24a2,2,0,0,1-.54,1.43,1.85,1.85,0,0,1-1.45.58h-6.88a1.88,1.88,0,0,1-1.4-.58,2,2,0,0,1-.58-1.43V776.79c0-3.51-.74-6-2.2-7.61a7.52,7.52,0,0,0-5.76-2.35,7.34,7.34,0,0,0-5.51,2.39q-2.28,2.38-2.28,7.57v23.36a2,2,0,0,1-.54,1.43,1.87,1.87,0,0,1-1.45.58h-7a1.89,1.89,0,0,1-1.41-.58,2,2,0,0,1-.58-1.43V776.79q0-5.19-2.24-7.57a7.5,7.5,0,0,0-5.72-2.39,7.34,7.34,0,0,0-5.51,2.39q-2.28,2.38-2.28,7.57v23.36a2,2,0,0,1-.54,1.43,1.88,1.88,0,0,1-1.45.58h-7.05A1.92,1.92,0,0,1,313.35,801.58Z"/><path class="cls-2" d="M392.43,817.53a1.93,1.93,0,0,1-.58-1.47V760.64a1.9,1.9,0,0,1,.58-1.47,2,2,0,0,1,1.41-.54h6.63a2,2,0,0,1,1.49.58,2,2,0,0,1,.58,1.43V764q4.4-6.19,13.18-6.19,8.37,0,12.85,5.31t4.8,14.28c.06.67.09,1.67.09,3s0,2.35-.09,3q-.24,8.79-4.76,14.19T415.72,803q-8.3,0-12.68-5.94v19a2,2,0,0,1-.54,1.47,2,2,0,0,1-1.45.54h-7.21A2,2,0,0,1,392.43,817.53ZM422,782.91c.05-.56.08-1.4.08-2.52s0-1.95-.08-2.51q-.58-11.05-9.45-11-4.72,0-7.05,3.1a13.09,13.09,0,0,0-2.48,7.53q-.09,1-.09,3.18t.09,3.27a11.59,11.59,0,0,0,2.57,7.12,8.49,8.49,0,0,0,7,2.93Q421.44,794,422,782.91Z"/><path class="cls-2" d="M451.57,801.28a14.14,14.14,0,0,1-5.56-4.64A11.46,11.46,0,0,1,448.54,781c3-2.34,7.21-3.94,12.52-4.77l11.35-1.68v-1.76a7.42,7.42,0,0,0-1.82-5.44c-1.22-1.22-3.15-1.84-5.8-1.84a8.37,8.37,0,0,0-4.39,1,13.77,13.77,0,0,0-2.7,2l-1.37,1.38a1.24,1.24,0,0,1-1.24,1h-6.47a1.8,1.8,0,0,1-1.28-.5,1.73,1.73,0,0,1-.54-1.34,9,9,0,0,1,2-4.73,15.84,15.84,0,0,1,6-4.6,22.79,22.79,0,0,1,10-2q9.78,0,14.26,4.44t4.47,11.63v26.29a2.07,2.07,0,0,1-.53,1.43,1.9,1.9,0,0,1-1.45.58h-6.88a1.89,1.89,0,0,1-1.41-.58,2,2,0,0,1-.58-1.43v-3.26a13.68,13.68,0,0,1-5.14,4.39,17.86,17.86,0,0,1-8.29,1.72A17.38,17.38,0,0,1,451.57,801.28Zm18-9.33q2.89-3,2.9-8.71v-1.67l-8.29,1.34q-9.54,1.5-9.53,6.44a4.71,4.71,0,0,0,2.19,4.15,9.34,9.34,0,0,0,5.27,1.46A9.92,9.92,0,0,0,469.6,792Z"/><path class="cls-2" d="M505.9,818.11a16.25,16.25,0,0,1-6.46-5.65,11,11,0,0,1-1.91-5.44,1.79,1.79,0,0,1,.58-1.38,2,2,0,0,1,1.41-.55h7.37a2.21,2.21,0,0,1,1.29.38,2.61,2.61,0,0,1,.87,1.38,9.86,9.86,0,0,0,2.74,3.73q1.81,1.54,5.63,1.55,5,0,7.3-2.22c1.54-1.48,2.32-4.06,2.32-7.75v-5.69q-4.49,5.35-12.69,5.36-8.61,0-13-5.28t-4.68-14.4l-.08-2.26.08-2.26q.33-9,4.72-14.4t12.93-5.44a17,17,0,0,1,7.71,1.67,15.59,15.59,0,0,1,5.47,4.52v-3.26a2,2,0,0,1,.63-1.51,2,2,0,0,1,1.45-.58h6.79a1.89,1.89,0,0,1,1.41.58,2.05,2.05,0,0,1,.58,1.51l.08,40.35q0,9.3-5.13,14.4t-15.5,5.11Q510.46,820.58,505.9,818.11Zm18.57-28.17a13.08,13.08,0,0,0,2.57-7.37c.05-.45.08-1.34.08-2.68s0-2.23-.08-2.68a13.08,13.08,0,0,0-2.57-7.37c-1.55-2-3.87-3-7-3q-8.94,0-9.45,11l-.08,2Q508,793,517.5,793,522.15,793,524.47,789.94Z"/><path class="cls-2" d="M554.14,801.58a2,2,0,0,1-.58-1.43V760.64a1.9,1.9,0,0,1,.58-1.47,2,2,0,0,1,1.41-.54h6.88a2,2,0,0,1,1.45.54,2,2,0,0,1,.54,1.47v3.43q5.05-6.29,13.84-6.28,7.62,0,12.1,5t4.48,13.82v23.52a2,2,0,0,1-.54,1.43,1.87,1.87,0,0,1-1.45.58h-7.46a1.92,1.92,0,0,1-1.41-.58,2,2,0,0,1-.58-1.43v-23c0-3.24-.79-5.76-2.36-7.58a8.49,8.49,0,0,0-6.76-2.72,8.83,8.83,0,0,0-6.79,2.76,10.63,10.63,0,0,0-2.57,7.54v23a2,2,0,0,1-.54,1.43,1.88,1.88,0,0,1-1.45.58h-7.38A1.92,1.92,0,0,1,554.14,801.58Z"/><path class="cls-2" d="M609.76,750.92a1.92,1.92,0,0,1-.58-1.42v-6.11a2,2,0,0,1,.58-1.51,1.93,1.93,0,0,1,1.41-.59h7.62a2,2,0,0,1,1.5.59,2.07,2.07,0,0,1,.58,1.51v6.11a1.86,1.86,0,0,1-.63,1.42,2,2,0,0,1-1.45.59h-7.62A1.93,1.93,0,0,1,609.76,750.92Zm.33,50.66a2,2,0,0,1-.58-1.43V760.64a1.9,1.9,0,0,1,.58-1.47,2,2,0,0,1,1.41-.54h7a1.88,1.88,0,0,1,1.4.58,2,2,0,0,1,.59,1.43v39.51a2,2,0,0,1-.59,1.43,1.88,1.88,0,0,1-1.4.58h-7A1.92,1.92,0,0,1,610.09,801.58Z"/><path class="cls-2" d="M639.56,797.64q-5.43-5.35-5.76-15.24l-.09-2.09q0-10.47,5.43-16.49t15.05-6q9.85,0,15.21,6t5.34,16.07v1.76a1.92,1.92,0,0,1-.58,1.42,2,2,0,0,1-1.49.59H645.15v.67a13,13,0,0,0,2.53,7.74,7.76,7.76,0,0,0,6.51,3.06,9.28,9.28,0,0,0,7.7-3.85,4.74,4.74,0,0,1,1.16-1.13,3.4,3.4,0,0,1,1.41-.21h7.3a2,2,0,0,1,1.28.42,1.4,1.4,0,0,1,.54,1.17q0,2-2.36,4.73a19.68,19.68,0,0,1-6.76,4.73,24.22,24.22,0,0,1-10.19,2Q645,803,639.56,797.64Zm23.74-21.1v-.17a12.08,12.08,0,0,0-2.44-7.91,8.19,8.19,0,0,0-6.67-3,8.06,8.06,0,0,0-6.63,3,12.18,12.18,0,0,0-2.41,7.91v.17Z"/><path class="cls-1" d="M244.64,267.08c11.14-8,25.17-18.27,28.87-32.23,3-11.45-1.88-22.33-14.83-19.85-15.39,2.94-29.62,16.06-40.43,26.68-19.3,18.95-33.92,42.21-45.38,66.74,13.53-6.69,26.9-13.72,40-21.22C223.72,281,234.44,274.38,244.64,267.08Z"/><path class="cls-1" d="M495.63,523.18C461,533.29,425,525.73,403,496c-12.78-17.25-18.83-39.11-20.59-60.79a1071.76,1071.76,0,0,1-116.84,69.15c-41.49,21-95.84,38-135.27,3.5-30-26.25-30.9-69.65-24.9-106,1.5-9,3.45-18.09,5.72-27.11Q78,388.12,44.16,399.52C66.6,557,202,678.13,365.66,678.13c162.21,0,296.63-118.92,320.89-274.33-24.9,18.32-50.5,35.81-75.84,53.28C575,481.68,537.83,510.89,495.63,523.18Z"/><path class="cls-1" d="M143.62,287.21c18-37,43.63-71.35,78.36-94.23,18.44-12.15,43.85-20.26,64.45-8.24,19.11,11.16,26,34,22.46,54.89C302.81,275.3,265,297.94,236.2,314.9c-26.51,15.63-54.28,29.11-82.39,41.61-8,23.18-14.56,47.35-15.74,71.32-1.38,27.89,6.64,59.08,38.75,63.84,35.7,5.29,73.22-18.89,102.87-35.34A1157.78,1157.78,0,0,0,383.92,390.8c7.6-60.58,35.35-122.69,80.29-163.42,24.2-21.93,59-39.13,92-27.52,31.12,11,55.43,41.63,46.51,75.63-5.84,22.23-40.24,12.75-34.41-9.48,2.65-10.13-3-19.63-11.23-25.92-10.64-8.17-23.19-9.81-35.89-6.24-29.09,8.17-50.43,36.13-65.7,60.59a254,254,0,0,0-32.89,81.33c-5.28,24.54-7.83,51-1.37,75.57,5.32,20.23,18,39.51,40.86,40.73,22.34,1.2,44.36-9.89,63.05-21.14,32.45-19.53,63.49-41.61,94.46-63.37q25-17.61,49.79-35.63,9.75-7.12,19.41-14.38l1.61-1.22c0-1,.08-2,.08-3,0-179.39-145.43-324.82-324.82-324.82S40.84,173.92,40.84,353.31c0,3.24.14,6.44.24,9.66Q83.65,348.39,125,330.46C130.58,315.61,136.87,301.11,143.62,287.21Z"/><path class="cls-2" d="M65.35,802.58a2,2,0,0,1-.58-1.43v-54.5a2.13,2.13,0,0,1,.54-1.51,1.88,1.88,0,0,1,1.45-.59h36.56a2,2,0,0,1,2.07,2.1v5.61a1.89,1.89,0,0,1-.58,1.46,2.08,2.08,0,0,1-1.49.55H76.13v14.65h25.36a2,2,0,0,1,1.5.59,2.07,2.07,0,0,1,.58,1.5v5.28a1.93,1.93,0,0,1-.58,1.46,2.09,2.09,0,0,1-1.5.55H76.13v15.15H104a2.1,2.1,0,0,1,1.49.54,1.93,1.93,0,0,1,.58,1.47v5.69a1.9,1.9,0,0,1-.58,1.47,2.1,2.1,0,0,1-1.49.54H66.76A1.92,1.92,0,0,1,65.35,802.58Z"/><path class="cls-2" d="M120.14,802.58a2,2,0,0,1-.58-1.43V761.64a1.9,1.9,0,0,1,.58-1.47,2,2,0,0,1,1.41-.54h6.88a2,2,0,0,1,1.45.54,2,2,0,0,1,.54,1.47v3.43q5.06-6.29,13.84-6.28,7.63,0,12.1,5t4.48,13.82v23.52a2,2,0,0,1-.54,1.43,1.87,1.87,0,0,1-1.45.58h-7.46a1.92,1.92,0,0,1-1.41-.58,2,2,0,0,1-.58-1.43v-23c0-3.24-.79-5.76-2.36-7.58a8.49,8.49,0,0,0-6.76-2.72,8.84,8.84,0,0,0-6.79,2.76,10.63,10.63,0,0,0-2.57,7.54v23a2,2,0,0,1-.54,1.43,1.87,1.87,0,0,1-1.45.58h-7.38A1.92,1.92,0,0,1,120.14,802.58Z"/><path class="cls-2" d="M204.23,798.1q-6.25-5.91-6.67-16.79c-.06-1.51-.08-4-.08-7.37s0-6,.08-7.53q.41-10.73,6.71-16.71t17.66-6a30.16,30.16,0,0,1,12.85,2.55,20.49,20.49,0,0,1,8.49,7,18.27,18.27,0,0,1,3.19,10v.16a1.42,1.42,0,0,1-.54,1.13,1.79,1.79,0,0,1-1.2.46h-8a2.11,2.11,0,0,1-1.49-.46,3.51,3.51,0,0,1-.83-1.63c-.83-3.46-2.26-5.9-4.31-7.33a14,14,0,0,0-8.12-2.13q-11.85,0-12.35,13.4c-.06,1.5-.09,3.82-.09,6.94s0,5.5.09,7.12q.49,13.4,12.35,13.4a14,14,0,0,0,8.08-2.14q3.11-2.13,4.35-7.32a3.61,3.61,0,0,1,.83-1.64,2.16,2.16,0,0,1,1.49-.46h8a1.81,1.81,0,0,1,1.29.51,1.38,1.38,0,0,1,.45,1.25,18.27,18.27,0,0,1-3.19,10,20.64,20.64,0,0,1-8.49,7A30.16,30.16,0,0,1,221.93,804Q210.49,804,204.23,798.1Z"/><path class="cls-2" d="M263.54,799q-5.31-5-5.72-13.9l-.08-3.69.08-3.68q.4-8.79,5.8-13.86t15-5.06q9.54,0,14.92,5.06t5.81,13.86c0,.67.08,1.9.08,3.68s0,3-.08,3.69q-.42,8.88-5.72,13.9t-15,5Q268.84,804,263.54,799Zm21.84-6.2c1.57-1.84,2.42-4.55,2.53-8.12,0-.56.08-1.65.08-3.27s0-2.7-.08-3.26q-.17-5.36-2.57-8.16a9.52,9.52,0,0,0-13.51,0c-1.61,1.87-2.46,4.59-2.57,8.16l-.09,3.26.09,3.27c.11,3.57,1,6.28,2.57,8.12a8.51,8.51,0,0,0,6.79,2.76A8.42,8.42,0,0,0,285.38,792.78Z"/><path class="cls-2" d="M313.35,802.58a2,2,0,0,1-.58-1.43V761.64a1.93,1.93,0,0,1,.58-1.47,2,2,0,0,1,1.41-.54h6.55a2,2,0,0,1,1.45.54,2,2,0,0,1,.54,1.47v2.84a14.51,14.51,0,0,1,12-5.69q9.19,0,12.85,7.45a14.86,14.86,0,0,1,5.63-5.4,15.79,15.79,0,0,1,7.88-2.05,14.37,14.37,0,0,1,11.1,4.69q4.32,4.68,4.31,13.64v24a2,2,0,0,1-.54,1.43,1.85,1.85,0,0,1-1.45.58h-6.88a1.88,1.88,0,0,1-1.4-.58,2,2,0,0,1-.58-1.43V777.79c0-3.51-.74-6-2.2-7.61a7.52,7.52,0,0,0-5.76-2.35,7.34,7.34,0,0,0-5.51,2.39q-2.28,2.38-2.28,7.57v23.36a2,2,0,0,1-.54,1.43,1.87,1.87,0,0,1-1.45.58h-7a1.89,1.89,0,0,1-1.41-.58,2,2,0,0,1-.58-1.43V777.79q0-5.19-2.24-7.57a7.5,7.5,0,0,0-5.72-2.39,7.34,7.34,0,0,0-5.51,2.39q-2.28,2.38-2.28,7.57v23.36a2,2,0,0,1-.54,1.43,1.88,1.88,0,0,1-1.45.58h-7.05A1.92,1.92,0,0,1,313.35,802.58Z"/><path class="cls-2" d="M392.43,818.53a1.93,1.93,0,0,1-.58-1.47V761.64a1.9,1.9,0,0,1,.58-1.47,2,2,0,0,1,1.41-.54h6.63a2,2,0,0,1,1.49.58,2,2,0,0,1,.58,1.43V765q4.4-6.19,13.18-6.19,8.37,0,12.85,5.31t4.8,14.28c.06.67.09,1.67.09,3s0,2.35-.09,3q-.24,8.79-4.76,14.19T415.72,804q-8.3,0-12.68-5.94v19a2,2,0,0,1-.54,1.47,2,2,0,0,1-1.45.54h-7.21A2,2,0,0,1,392.43,818.53ZM422,783.91c.05-.56.08-1.4.08-2.52s0-1.95-.08-2.51q-.58-11.05-9.45-11-4.72,0-7.05,3.1a13.09,13.09,0,0,0-2.48,7.53q-.09,1-.09,3.18t.09,3.27a11.59,11.59,0,0,0,2.57,7.12,8.49,8.49,0,0,0,7,2.93Q421.44,795,422,783.91Z"/><path class="cls-2" d="M451.57,802.28a14.14,14.14,0,0,1-5.56-4.64A11.46,11.46,0,0,1,448.54,782c3-2.34,7.21-3.94,12.52-4.77l11.35-1.68v-1.76a7.42,7.42,0,0,0-1.82-5.44c-1.22-1.22-3.15-1.84-5.8-1.84a8.37,8.37,0,0,0-4.39,1,13.77,13.77,0,0,0-2.7,2l-1.37,1.38a1.24,1.24,0,0,1-1.24,1h-6.47a1.8,1.8,0,0,1-1.28-.5,1.73,1.73,0,0,1-.54-1.34,9,9,0,0,1,2-4.73,15.84,15.84,0,0,1,6-4.6,22.79,22.79,0,0,1,10-2q9.78,0,14.26,4.44t4.47,11.63v26.29a2.07,2.07,0,0,1-.53,1.43,1.9,1.9,0,0,1-1.45.58h-6.88a1.89,1.89,0,0,1-1.41-.58,2,2,0,0,1-.58-1.43v-3.26a13.68,13.68,0,0,1-5.14,4.39,17.86,17.86,0,0,1-8.29,1.72A17.38,17.38,0,0,1,451.57,802.28Zm18-9.33q2.89-3,2.9-8.71v-1.67l-8.29,1.34q-9.54,1.5-9.53,6.44a4.71,4.71,0,0,0,2.19,4.15,9.34,9.34,0,0,0,5.27,1.46A9.92,9.92,0,0,0,469.6,793Z"/><path class="cls-2" d="M505.9,819.11a16.25,16.25,0,0,1-6.46-5.65,11,11,0,0,1-1.91-5.44,1.79,1.79,0,0,1,.58-1.38,2,2,0,0,1,1.41-.55h7.37a2.21,2.21,0,0,1,1.29.38,2.61,2.61,0,0,1,.87,1.38,9.86,9.86,0,0,0,2.74,3.73q1.81,1.54,5.63,1.55,5,0,7.3-2.22c1.54-1.48,2.32-4.06,2.32-7.75v-5.69q-4.49,5.35-12.69,5.36-8.61,0-13-5.28t-4.68-14.4l-.08-2.26.08-2.26q.33-9,4.72-14.4t12.93-5.44a17,17,0,0,1,7.71,1.67,15.59,15.59,0,0,1,5.47,4.52v-3.26a2,2,0,0,1,.63-1.51,2,2,0,0,1,1.45-.58h6.79a1.89,1.89,0,0,1,1.41.58,2.05,2.05,0,0,1,.58,1.51l.08,40.35q0,9.3-5.13,14.4t-15.5,5.11Q510.46,821.58,505.9,819.11Zm18.57-28.17a13.08,13.08,0,0,0,2.57-7.37c.05-.45.08-1.34.08-2.68s0-2.23-.08-2.68a13.08,13.08,0,0,0-2.57-7.37c-1.55-2-3.87-3-7-3q-8.94,0-9.45,11l-.08,2Q508,794,517.5,794,522.15,794,524.47,790.94Z"/><path class="cls-2" d="M554.14,802.58a2,2,0,0,1-.58-1.43V761.64a1.9,1.9,0,0,1,.58-1.47,2,2,0,0,1,1.41-.54h6.88a2,2,0,0,1,1.45.54,2,2,0,0,1,.54,1.47v3.43q5.05-6.29,13.84-6.28,7.62,0,12.1,5t4.48,13.82v23.52a2,2,0,0,1-.54,1.43,1.87,1.87,0,0,1-1.45.58h-7.46a1.92,1.92,0,0,1-1.41-.58,2,2,0,0,1-.58-1.43v-23c0-3.24-.79-5.76-2.36-7.58a8.49,8.49,0,0,0-6.76-2.72,8.83,8.83,0,0,0-6.79,2.76,10.63,10.63,0,0,0-2.57,7.54v23a2,2,0,0,1-.54,1.43,1.88,1.88,0,0,1-1.45.58h-7.38A1.92,1.92,0,0,1,554.14,802.58Z"/><path class="cls-2" d="M609.76,751.92a1.92,1.92,0,0,1-.58-1.42v-6.11a2,2,0,0,1,.58-1.51,1.93,1.93,0,0,1,1.41-.59h7.62a2,2,0,0,1,1.5.59,2.07,2.07,0,0,1,.58,1.51v6.11a1.86,1.86,0,0,1-.63,1.42,2,2,0,0,1-1.45.59h-7.62A1.93,1.93,0,0,1,609.76,751.92Zm.33,50.66a2,2,0,0,1-.58-1.43V761.64a1.9,1.9,0,0,1,.58-1.47,2,2,0,0,1,1.41-.54h7a1.88,1.88,0,0,1,1.4.58,2,2,0,0,1,.59,1.43v39.51a2,2,0,0,1-.59,1.43,1.88,1.88,0,0,1-1.4.58h-7A1.92,1.92,0,0,1,610.09,802.58Z"/><path class="cls-2" d="M639.56,798.64q-5.43-5.35-5.76-15.24l-.09-2.09q0-10.47,5.43-16.49t15.05-6q9.85,0,15.21,6t5.34,16.07v1.76a1.92,1.92,0,0,1-.58,1.42,2,2,0,0,1-1.49.59H645.15v.67a13,13,0,0,0,2.53,7.74,7.76,7.76,0,0,0,6.51,3.06,9.28,9.28,0,0,0,7.7-3.85,4.74,4.74,0,0,1,1.16-1.13,3.4,3.4,0,0,1,1.41-.21h7.3a2,2,0,0,1,1.28.42,1.4,1.4,0,0,1,.54,1.17q0,2-2.36,4.73a19.68,19.68,0,0,1-6.76,4.73,24.22,24.22,0,0,1-10.19,2Q645,804,639.56,798.64Zm23.74-21.1v-.17a12.08,12.08,0,0,0-2.44-7.91,8.19,8.19,0,0,0-6.67-3,8.06,8.06,0,0,0-6.63,3,12.18,12.18,0,0,0-2.41,7.91v.17Z"/></svg>