<svg id="Calque_1" data-name="Calque 1" xmlns="http://www.w3.org/2000/svg" viewBox="0 0 401.42 321.57"><defs><style>.cls-1{fill:#fefefe;}.cls-2{fill:#f0f6f7;}</style></defs><g id="zdDgoY"><path class="cls-1" d="M254.32,258.1c-3.63-.09-6.86-1.29-10.12-2.19-37.06-10.28-73.39-22.76-109.33-36.39-4-1.53-6.4-1.37-9.1,2.29a192.59,192.59,0,0,1-12.72,14.71c-1.51,1.66-2,2.78,0,4.43,32,26.53,65,51.53,104.36,66.36a96.66,96.66,0,0,0,23.73,5.61c15.77,1.7,29.39-4.53,42.73-11.47C305.17,290.38,321.84,276,337,256c-11.09,4.6-20.6,9.78-31.79,10.73.43-2.39,2.36-2.61,3.85-3.27,10.79-4.8,21.94-8.83,31.88-15.39a15,15,0,0,0,4.16-3.5c7.59-10.34,19.39-36.92,22.25-50.6-5.92,2-11.67,3.4-17.06,5.71-16.12,6.91-32.61,6.14-49.52,3.9-38.25-5.06-76.58-9.58-115.07-12.49-12.65-.95-25.2,1.6-37.78,2.8-2,.19-2.71,1.69-3.63,3-3,4.41-5.69,9-9,13.15-2.67,3.29-1.94,4.37,1.7,5.75,25.37,9.56,51.09,18.12,76.77,26.78q18.44,6.21,36.85,12.47C252,255.56,253.94,255.54,254.32,258.1Z"/><path class="cls-1" d="M175,162.28c32.79-.29,64.15-4.32,95.55-7.88,17.84-2,35.69-5,53.68-3.53,17.35,1.38,33.72,7.42,50.32,12.19l3.35,1c7.16,2.12,7.27,2.11,6.76-5.09-1.27-17.92-2.7-35.83-3.91-53.76-.17-2.49-1.2-3.45-3.43-4C355,95.81,332.86,89.61,310,87.2c-15.11-1.59-30.28.25-45.38,1.11-19.75,1.14-39.47,2.85-59.17,4.66-20.85,1.92-41.7,3.87-62.34,7.66-3.5.64-4,2-3.15,5,5,17.63,9,35.47,10.61,53.76.27,3,2.09,2.92,4.09,3C161.79,162.49,168.94,163,175,162.28Z"/><path class="cls-1" d="M377.46,194c3.43-7.19,4.46-14.21,5-21.36a2.79,2.79,0,0,0-2.26-3.29c-24.05-7-47.6-16.7-73.42-14.34-19.39,1.78-38.76,3.76-58.08,6.1-30.44,3.68-60.94,6.06-91.61,5.54-4.33-.07-6.25.72-6,5.62a40.55,40.55,0,0,1-1.84,14.3c-.71,2.26-.88,3.4,2.24,2.84,30.51-5.47,60.7-.23,90.93,3,26.78,2.9,53.51,6.35,80.32,9,8.14.8,16-2.41,23.78-5,7.1-2.35,14-5.39,21.39-6.72C372.86,188.82,374.18,189.42,377.46,194Z"/><path class="cls-1" d="M298.52,67.83c-26.18,1.38-52.84,3.77-79.45,6.78s-53.5,6.31-80.28,9.21c-4.16.46-5,1.32-3.57,5.38,2.83,8,2.58,8.09,11.13,6.7,27.93-4.52,56.09-7,84.27-9.15,17.09-1.31,34.2-2.25,51.28-3.67,24.24-2,47.73,2.17,71.07,8,8.71,2.17,17.45,4.22,26.12,6.5,3.75,1,4.66-.06,4.13-3.85-1.6-11.4-1.5-11.33-13-14-19.42-4.56-38.89-8.84-58.72-11.29C307.39,67.89,303.25,68.07,298.52,67.83Z"/><path class="cls-2" d="M120.83,111c-.52-7.06-2.27-11.3-8-14.74-15.69-9.4-30.71-19.91-46.11-29.82C54.82,58.77,43.66,49.35,30.05,45c-4.46-1.42-8.13-3.13-12.83-3.13C6.1,41.9-1.17,51.24.16,62.34a208,208,0,0,0,9.65,41.72c16.6,47.58,51.45,79.32,89.72,110,2,1.59,4.07,4.87,7.33.71,2.35-3,2.07-4.06-.87-6.4-27.6-21.95-53.65-45.84-72.67-75.61-12.24-19.17-17.21-34.56-23.23-57A33.83,33.83,0,0,1,8.89,62.5C10,54,14,51.08,22.67,52.28c8,1.1,11.92,4.06,19.35,7,15.32,6.09,23.37,16.08,36.21,25.83C91.43,95.14,105.87,101.5,120.83,111Z"/><path class="cls-1" d="M127.41,85.28c-7.79.54-7.74.53-5.94,8.3,5,21.71,9,43.6,12.1,65.68,2.78,19.69-3,36-16.67,50-5.23,5.34-9.84,11.29-14.89,16.82-1.91,2.09-2.48,3.32.16,5.48,5.41,4.46,5.24,4.64,10-.47,8.4-9,15.77-18.89,23.5-28.47,10.67-13.21,12.67-28.19,10.76-44.24-2.84-23.86-8.56-47.08-15.61-70C130.24,86.55,130.06,84.55,127.41,85.28Z"/><path class="cls-2" d="M345.48,69.74C318.12,53.26,295,30.38,265.61,17.39c-8.1-3.58-20.61-6.66-29.73-6C227.6,12,224.47,18,225.73,27.21c1.09,8,2.2,15.77,4.75,23.34,1.79,5.35,4,10.55,5.85,15.89.62,1.82,1.58,2.55,3.28,2,2.53-.83,3.67-1.72,3.11-2.86-4.8-9.7-8.89-18.44-10.26-29.36-.07-.5-.29-1-.36-1.46C230,20.53,233.26,13,247.23,16.44c21.58,5.31,39.45,17,56,31.45a213.66,213.66,0,0,0,24,17.78C332.55,69.16,339.37,68.21,345.48,69.74Z"/><path class="cls-2" d="M368.54,204.9c3.45-3,6.12-6,3.56-11.14C370.76,197.94,369.65,201.42,368.54,204.9Z"/></g></svg>